<svg width="32" height="32" viewBox="0 0 32 32" fill="none" xmlns="http://www.w3.org/2000/svg">
<path d="M15.2733 13.3133C13.3813 13.8693 11.1267 14.156 8.51733 14.1747C9.05733 11.9693 10.5413 10.1347 12.5213 9.12933C13.5573 10.484 14.4733 11.88 15.2733 13.3133ZM16.56 15.8867C16.3947 15.5133 16.2213 15.1413 16.0387 14.7733C13.876 15.4533 11.2907 15.7987 8.3 15.8027L8.28933 16C8.28933 17.872 8.96133 19.5893 10.076 20.9267C11.764 18.392 13.9307 16.708 16.56 15.8867ZM11.2667 22.0747C13.3587 23.708 16.1613 24.1933 18.7653 23.1893C18.4293 21.2053 17.8987 19.2693 17.1787 17.3867C14.7533 18.1093 12.7987 19.672 11.2667 22.0747ZM20.7 9.90133C19.3973 8.896 17.7707 8.28933 16 8.28933C15.3467 8.28933 14.7147 8.38 14.1093 8.53467C15.128 9.90533 16.0307 11.316 16.8227 12.764C18.4707 12.0653 19.7613 11.1107 20.7 9.90133ZM32 16C32 24.836 24.836 32 16 32C7.164 32 0 24.836 0 16C0 7.164 7.164 0 16 0C24.836 0 32 7.164 32 16ZM25.3333 16C25.3333 10.8453 21.1533 6.66667 16 6.66667C10.8467 6.66667 6.66667 10.8453 6.66667 16C6.66667 21.1547 10.8467 25.3333 16 25.3333C21.1533 25.3333 25.3333 21.1547 25.3333 16ZM17.568 14.2013C17.7773 14.6333 17.9747 15.0693 18.164 15.508C19.844 15.2187 21.6853 15.236 23.688 15.564C23.5907 13.8413 22.9333 12.2653 21.8827 11.0267C20.8067 12.3667 19.3627 13.424 17.568 14.2013ZM18.7867 17.044C19.4387 18.7893 19.94 20.5787 20.2787 22.408C22.028 21.2347 23.2667 19.3627 23.608 17.196C21.852 16.892 20.2453 16.8387 18.7867 17.044Z" fill="#85868D"/>
</svg>
