<svg width="32" height="33" viewBox="0 0 32 33" fill="none" xmlns="http://www.w3.org/2000/svg">
<path d="M11.7867 15.1133H9.16667V12.6346H11.544C14.048 12.6346 13.7387 15.1133 11.7867 15.1133ZM19.5053 16.524H23.004C22.8507 14.2746 19.8573 14.1106 19.5053 16.524ZM11.6387 17.052H9.16667V19.648H11.5987C13.9747 19.6466 13.8293 17.052 11.6387 17.052ZM32 16.6666C32 25.5026 24.836 32.6666 16 32.6666C7.164 32.6666 0 25.5026 0 16.6666C0 7.83063 7.164 0.666626 16 0.666626C24.836 0.666626 32 7.83063 32 16.6666ZM14.1907 15.6893C16.4147 14.552 16.3333 10.3813 12.0747 10.3186H6.66667V21.9586H11.6947C16.972 21.9586 16.8827 16.6693 14.1907 15.6893ZM18.6667 11.468H24V10.3013H18.6667V11.468ZM25.2573 16.392C24.5307 11.7186 17.1867 11.444 17.1867 17.5546C17.1867 23.5893 24.0933 22.6453 25.1187 19.6346H22.6547C21.7947 20.632 19.3107 20.3426 19.4493 18.056H25.3293C25.3413 17.316 25.3173 16.7853 25.2573 16.392Z" fill="#85868D"/>
</svg>
