<svg width="32" height="33" viewBox="0 0 32 33" fill="none" xmlns="http://www.w3.org/2000/svg">
<path d="M16 0.333313C7.15528 0.333313 0 7.48859 0 16.3333C0 25.178 7.15528 32.3333 16 32.3333C24.8447 32.3333 32 25.178 32 16.3333C32 7.48859 24.8447 0.333313 16 0.333313ZM19.9752 16.1842H17.2919V25.3271H13.6149V16.1842H11.7267V13.1532H13.6149V11.3147C13.6149 8.78052 14.8571 7.28983 17.8385 7.28983C18.882 7.28983 19.0807 7.28983 20.1242 7.28983V10.3706C19.6273 10.3706 18.9317 10.3706 18.5342 10.3706C17.3416 10.3706 17.2919 10.8675 17.2919 11.7122V13.1532H20.2236L19.9752 16.1842Z" fill="#85868D"/>
</svg>
