<svg width="32" height="33" viewBox="0 0 32 33" fill="none" xmlns="http://www.w3.org/2000/svg">
<path d="M16 0.333313C7.164 0.333313 0 7.49731 0 16.3333C0 25.1693 7.164 32.3333 16 32.3333C24.836 32.3333 32 25.1693 32 16.3333C32 7.49731 24.836 0.333313 16 0.333313ZM18.9573 25.1546C18.4853 25.2466 18.3333 24.956 18.3333 24.7066V22.1453C18.3333 21.2746 18.028 20.7066 17.692 20.4173C19.772 20.1866 21.956 19.3973 21.956 15.812C21.956 14.792 21.592 13.96 20.9947 13.3066C21.0907 13.0706 21.4107 12.1213 20.9027 10.836C20.9027 10.836 20.12 10.5853 18.3387 11.792C17.5907 11.5866 16.7933 11.484 16 11.48C15.2067 11.484 14.4093 11.5866 13.6627 11.7933C11.88 10.5866 11.096 10.8373 11.096 10.8373C10.5907 12.1226 10.9093 13.072 11.0067 13.3066C10.4093 13.96 10.044 14.792 10.044 15.812C10.044 19.388 12.2227 20.188 14.296 20.424C14.0293 20.6573 13.788 21.068 13.704 21.672C13.1707 21.9106 11.82 22.3226 10.988 20.896C10.988 20.896 10.4947 20 9.55733 19.9333C9.55733 19.9333 8.64667 19.9213 9.49333 20.5013C9.49333 20.5013 10.1067 20.788 10.5293 21.8666C10.5293 21.8666 11.0693 23.5333 13.6667 22.968V24.7053C13.6667 24.952 13.516 25.2413 13.0507 25.1546C9.34133 23.9213 6.66667 20.4226 6.66667 16.3C6.66667 11.144 10.8467 6.96665 16 6.96665C21.1533 6.96665 25.3333 11.144 25.3333 16.3C25.3333 20.4213 22.6627 23.92 18.9573 25.1546Z" fill="#85868D"/>
</svg>
