<svg width="32" height="33" viewBox="0 0 32 33" fill="none" xmlns="http://www.w3.org/2000/svg">
<path d="M16 0.666687C7.15528 0.666687 0 7.82197 0 16.6667C0 25.5114 7.15528 32.6667 16 32.6667C24.8447 32.6667 32 25.5114 32 16.6667C32 7.82197 24.8447 0.666687 16 0.666687ZM11.0311 24.8654H7.40373V13.1387H11.0311V24.8654ZM9.24224 11.8468C8.14907 11.8468 7.45342 11.1015 7.45342 10.1574C7.45342 9.16358 8.14907 8.46793 9.24224 8.46793C10.3354 8.46793 11.0311 9.21327 11.0807 10.1574C11.0807 11.1015 10.3354 11.8468 9.24224 11.8468ZM24.5963 24.8654H20.8696V18.3561C20.8696 16.8654 20.323 15.822 18.9814 15.822C17.9379 15.822 17.1925 16.5176 16.9441 17.1636C16.8447 17.412 16.795 17.7599 16.795 18.058V24.8158H13.118V13.089H16.3975V14.6791H16.4969C16.9938 13.9338 18.3851 12.7909 20.323 12.7909C22.7578 12.7909 24.5963 14.381 24.5963 17.8095V24.8654Z" fill="#85868D"/>
</svg>
