<svg width="32" height="32" viewBox="0 0 32 32" fill="none" xmlns="http://www.w3.org/2000/svg">
<path d="M16.0003 9.25102C11.9693 9.18302 7.80032 12 5.17932 14.885C4.9042 15.1905 4.75195 15.587 4.75195 15.998C4.75195 16.4091 4.9042 16.8056 5.17932 17.111C7.74332 19.935 11.9003 22.817 16.0003 22.748C20.1003 22.817 24.2583 19.935 26.8243 17.111C27.0994 16.8056 27.2517 16.4091 27.2517 15.998C27.2517 15.587 27.0994 15.1905 26.8243 14.885C24.2003 12 20.0313 9.18302 16.0003 9.25102Z" stroke="#5D5D67" stroke-width="1.5" stroke-linecap="round" stroke-linejoin="round"/>
<path d="M19.75 16C19.7498 16.7417 19.5297 17.4666 19.1175 18.0831C18.7054 18.6997 18.1196 19.1802 17.4344 19.4639C16.7491 19.7475 15.9952 19.8217 15.2678 19.6768C14.5404 19.532 13.8723 19.1748 13.348 18.6503C12.8237 18.1258 12.4666 17.4576 12.322 16.7302C12.1774 16.0028 12.2517 15.2489 12.5355 14.5637C12.8194 13.8786 13.3001 13.293 13.9167 12.8809C14.5334 12.4689 15.2584 12.249 16 12.249C16.4926 12.2489 16.9804 12.3458 17.4355 12.5343C17.8905 12.7228 18.304 12.9991 18.6523 13.3474C19.0006 13.6958 19.2768 14.1094 19.4651 14.5645C19.6535 15.0196 19.7503 15.5074 19.75 16Z" stroke="#5D5D67" stroke-width="1.5" stroke-linecap="round" stroke-linejoin="round"/>
</svg>
