<svg width="183" height="39" viewBox="0 0 183 39" fill="none" xmlns="http://www.w3.org/2000/svg">
<path fill-rule="evenodd" clip-rule="evenodd" d="M32.6353 1.81769L22.2573 12.2095H5.38204C4.93709 12.2095 4.4199 12.5346 4.22733 12.9346L0.0988525 21.5116C-0.093927 21.9121 0.00363719 22.4911 0.318571 22.8066L10.123 32.6285L11.7985 34.3057L13.02 35.5302L15.3554 37.8696C15.6694 38.1841 16.1778 38.1848 16.4922 37.8698L29.4601 24.8763C29.7739 24.5619 30.0283 23.9464 30.0283 23.5005V17.939L31.1466 16.7941C31.4569 16.4765 31.7084 15.8584 31.7084 15.4136V10.973L32.6353 10.082L33.7964 8.91799C34.1106 8.60302 34.3653 7.98738 34.3653 7.54423V1.69588C34.3653 0.806615 33.8556 0.596006 33.2282 1.22407L32.6353 1.81769ZM11.2883 31.4038L27.0144 15.7477L29.9774 12.7618V16.1088L28.8547 17.2442L28.3016 17.8048L28.1061 18.0043L12.9641 33.0761L11.2883 31.4038ZM15.8982 36.0014L14.2136 34.3242L28.3403 20.2518L28.3523 20.2375V23.5918L15.8982 36.0014ZM32.7402 7.65546L28.3979 11.991L27.6246 12.7611L26.3255 14.0589L10.2006 30.1509L8.52556 28.4799L23.0658 13.9686L32.7402 4.3111V7.65546Z" fill="#EC1115"/>
<path d="M51.6095 15.3785C50.2088 15.3785 49.122 15.934 48.3009 16.9725C47.673 15.934 46.6345 15.3785 45.3787 15.3785C44.1712 15.3785 43.1327 15.9098 42.4806 16.8759V16.2721C42.4806 15.9098 42.2874 15.6925 41.9252 15.6925H39.9448C39.5826 15.6925 39.3652 15.9098 39.3652 16.2721V27.2122C39.3652 27.5745 39.5826 27.7677 39.9448 27.7677H41.9252C42.2874 27.7677 42.4806 27.5745 42.4806 27.2122V20.3052C42.4806 18.7354 43.4225 18.2524 44.2678 18.2524C45.113 18.2524 45.8134 18.663 45.8134 19.8705V27.2122C45.8134 27.5745 46.0307 27.7677 46.393 27.7677H48.3492C48.7356 27.7677 48.9288 27.5745 48.9288 27.2122V20.3052C48.9288 18.7354 49.8706 18.2524 50.7159 18.2524C51.537 18.2524 52.2615 18.663 52.2615 19.8705V27.2122C52.2615 27.5745 52.4547 27.7677 52.8411 27.7677H54.7973C55.1596 27.7677 55.3769 27.5745 55.3769 27.2122V19.629C55.3769 16.8517 53.9038 15.3785 51.6095 15.3785Z" fill="#343541"/>
<path d="M63.7233 28.1058C67.2493 28.1058 70.099 25.3285 70.099 21.7301C70.099 18.1558 67.2493 15.3785 63.7233 15.3785C60.1732 15.3785 57.3235 18.1558 57.3235 21.7301C57.3235 25.3285 60.1732 28.1058 63.7233 28.1058ZM63.7233 25.0628C61.8638 25.0628 60.4389 23.6863 60.4389 21.7301C60.4389 19.7739 61.8638 18.3973 63.7233 18.3973C65.5588 18.3973 66.9836 19.7739 66.9836 21.7301C66.9836 23.6863 65.5588 25.0628 63.7233 25.0628Z" fill="#343541"/>
<path d="M78.763 15.3785C77.2657 15.3785 76.1547 15.934 75.4785 16.9483V16.2721C75.4785 15.9098 75.2853 15.6925 74.8989 15.6925H72.9427C72.5805 15.6925 72.3631 15.9098 72.3631 16.2721V27.2122C72.3631 27.5745 72.5805 27.7677 72.9427 27.7677H74.8989C75.2853 27.7677 75.4785 27.5745 75.4785 27.2122V20.7882C75.4785 18.9769 76.4445 18.2524 77.6521 18.2524C78.763 18.2524 79.5841 18.9045 79.5841 20.3052V27.2122C79.5841 27.5745 79.7773 27.7677 80.1395 27.7677H82.1199C82.4821 27.7677 82.6995 27.5745 82.6995 27.2122V20.0637C82.6995 17.0932 81.009 15.3785 78.763 15.3785Z" fill="#343541"/>
<path d="M90.9644 15.6925H89.4671V12.408C89.4671 12.0458 89.2739 11.8284 88.8875 11.8284H86.9313C86.569 11.8284 86.3517 12.0458 86.3517 12.408V15.6925H84.8543C84.4679 15.6925 84.2747 15.9098 84.2747 16.2721V18.1317C84.2747 18.4939 84.4679 18.6871 84.8543 18.6871H86.3517V27.2122C86.3517 27.5745 86.569 27.7677 86.9313 27.7677H88.8875C89.2739 27.7677 89.4671 27.5745 89.4671 27.2122V18.6871H90.9644C91.3508 18.6871 91.544 18.4939 91.544 18.1317V16.2721C91.544 15.9098 91.3508 15.6925 90.9644 15.6925Z" fill="#343541"/>
<path d="M98.8927 15.3785C95.1011 15.3785 92.4928 18.1558 92.4928 21.7301C92.4928 25.3526 95.0286 28.1058 98.9651 28.1058C101.428 28.1058 103.409 26.9707 104.327 24.9421C104.496 24.5798 104.278 24.3142 103.844 24.3142H101.911C101.622 24.3142 101.428 24.4349 101.211 24.6523C100.728 25.1594 99.9312 25.5217 99.0134 25.5217C97.4678 25.5217 96.1637 24.7489 95.729 23.0342H101.791H104.278C104.616 23.0342 104.858 22.8652 104.882 22.5029C104.906 22.2614 104.93 22.0199 104.93 21.7542C104.93 18.18 102.467 15.3785 98.8927 15.3785ZM95.729 20.5709C96.0912 19.0735 97.2263 18.18 98.8685 18.18C100.173 18.18 101.453 18.8562 101.815 20.5709H95.729Z" fill="#343541"/>
<path d="M118.691 23.3723H116.542C116.204 23.3723 116.011 23.5172 115.842 23.7829C115.335 24.5557 114.417 25.0387 113.33 25.0387C111.47 25.0387 110.046 23.6621 110.046 21.7301C110.046 19.8222 111.47 18.4456 113.33 18.4456C114.417 18.4456 115.335 18.9045 115.842 19.7015C116.011 19.9671 116.228 20.112 116.542 20.112H118.691C119.102 20.112 119.319 19.8464 119.174 19.46C118.402 17.0449 116.083 15.3785 113.33 15.3785C109.659 15.3785 106.93 18.1558 106.93 21.7301C106.93 25.3285 109.659 28.1058 113.33 28.1058C116.083 28.1058 118.402 26.4394 119.174 24.0244C119.319 23.6138 119.102 23.3723 118.691 23.3723Z" fill="#EC1115"/>
<path d="M121.889 14.002H123.869C124.232 14.002 124.425 13.8088 124.425 13.4465V11.442C124.425 11.0798 124.232 10.8624 123.869 10.8624H121.889C121.527 10.8624 121.309 11.0798 121.309 11.442V13.4465C121.309 13.8088 121.527 14.002 121.889 14.002ZM121.889 27.7677H123.869C124.232 27.7677 124.425 27.5745 124.425 27.2122V16.2721C124.425 15.9099 124.232 15.6925 123.869 15.6925H121.889C121.527 15.6925 121.309 15.9099 121.309 16.2721V27.2122C121.309 27.5745 121.527 27.7677 121.889 27.7677Z" fill="#EC1115"/>
<path d="M133.749 15.3785C132.251 15.3785 131.14 15.934 130.464 16.9483V16.2721C130.464 15.9099 130.271 15.6925 129.885 15.6925H127.928C127.566 15.6925 127.349 15.9099 127.349 16.2721V27.2122C127.349 27.5745 127.566 27.7677 127.928 27.7677H129.885C130.271 27.7677 130.464 27.5745 130.464 27.2122V20.7882C130.464 18.977 131.43 18.2524 132.638 18.2524C133.749 18.2524 134.57 18.9045 134.57 20.3052V27.2122C134.57 27.5745 134.763 27.7677 135.125 27.7677H137.105C137.468 27.7677 137.685 27.5745 137.685 27.2122V20.0637C137.685 17.0932 135.995 15.3785 133.749 15.3785Z" fill="#EC1115"/>
<path d="M146.047 15.3785C142.255 15.3785 139.647 18.1558 139.647 21.7301C139.647 25.3527 142.183 28.1058 146.119 28.1058C148.582 28.1058 150.563 26.9707 151.48 24.9421C151.649 24.5798 151.432 24.3142 150.997 24.3142H149.065C148.776 24.3142 148.582 24.4349 148.365 24.6523C147.882 25.1594 147.085 25.5217 146.167 25.5217C144.622 25.5217 143.318 24.7489 142.883 23.0342H148.945H151.432C151.77 23.0342 152.012 22.8652 152.036 22.5029C152.06 22.2614 152.084 22.0199 152.084 21.7542C152.084 18.18 149.621 15.3785 146.047 15.3785ZM142.883 20.5709C143.245 19.0736 144.38 18.18 146.022 18.18C147.327 18.18 148.607 18.8562 148.969 20.5709H142.883Z" fill="#EC1115"/>
<path d="M166.506 15.3785C165.105 15.3785 164.019 15.934 163.198 16.9725C162.57 15.934 161.531 15.3785 160.275 15.3785C159.068 15.3785 158.029 15.9099 157.377 16.8759V16.2721C157.377 15.9099 157.184 15.6925 156.822 15.6925H154.841C154.479 15.6925 154.262 15.9099 154.262 16.2721V27.2122C154.262 27.5745 154.479 27.7677 154.841 27.7677H156.822C157.184 27.7677 157.377 27.5745 157.377 27.2122V20.3052C157.377 18.7354 158.319 18.2524 159.164 18.2524C160.01 18.2524 160.71 18.663 160.71 19.8705V27.2122C160.71 27.5745 160.927 27.7677 161.29 27.7677H163.246C163.632 27.7677 163.825 27.5745 163.825 27.2122V20.3052C163.825 18.7354 164.767 18.2524 165.613 18.2524C166.434 18.2524 167.158 18.663 167.158 19.8705V27.2122C167.158 27.5745 167.351 27.7677 167.738 27.7677H169.694C170.056 27.7677 170.274 27.5745 170.274 27.2122V19.629C170.274 16.8517 168.8 15.3785 166.506 15.3785Z" fill="#EC1115"/>
<path d="M177.702 15.3785C175.215 15.3785 173.114 16.731 172.8 19.2185C172.776 19.6049 173.017 19.7981 173.379 19.7981H175.311C175.649 19.7981 175.77 19.629 175.915 19.2909C176.108 18.6388 176.785 18.2524 177.702 18.2524C178.837 18.2524 179.562 18.8562 179.562 20.2811V21.5852C178.861 20.9573 177.823 20.4984 176.302 20.4984C174.152 20.4984 172.22 21.7784 172.22 24.3142C172.22 26.85 174.152 28.1058 176.302 28.1058C177.823 28.1058 178.861 27.5745 179.562 26.7292V27.2122C179.562 27.5745 179.779 27.7918 180.141 27.7918H182.025C182.412 27.7918 182.605 27.5745 182.605 27.2122V20.112C182.605 16.9725 180.359 15.3785 177.702 15.3785ZM177.34 25.8115C175.988 25.8115 175.336 25.1836 175.336 24.3142C175.336 23.4448 175.988 22.8169 177.34 22.8169C178.717 22.8169 179.562 23.3723 179.562 24.3142C179.562 25.1836 178.717 25.8115 177.34 25.8115Z" fill="#EC1115"/>
</svg>
