<svg width="32" height="28" viewBox="0 0 32 28" fill="none" xmlns="http://www.w3.org/2000/svg">
<g filter="url(#filter0_d_356_1216)">
<path d="M19.04 22.3896L19.052 22.3966C20.1141 23.0728 21.3751 23.3666 22.6267 23.2293C23.8783 23.092 25.0456 22.532 25.936 21.6416L26.71 20.8676C27.0557 20.5215 27.2498 20.0523 27.2498 19.5631C27.2498 19.0739 27.0557 18.6048 26.71 18.2586L23.449 14.9996C23.1028 14.6539 22.6336 14.4598 22.1445 14.4598C21.6553 14.4598 21.1861 14.6539 20.84 14.9996V14.9996C20.6688 15.171 20.4655 15.307 20.2418 15.3997C20.018 15.4925 19.7782 15.5402 19.536 15.5402C19.2937 15.5402 19.0539 15.4925 18.8302 15.3997C18.6064 15.307 18.4031 15.171 18.232 14.9996L13.014 9.78063C12.6683 9.4345 12.4741 8.96532 12.4741 8.47613C12.4741 7.98694 12.6683 7.51775 13.014 7.17163V7.17163C13.1853 7.00046 13.3213 6.79719 13.4141 6.57344C13.5068 6.34969 13.5546 6.10985 13.5546 5.86763C13.5546 5.62541 13.5068 5.38557 13.4141 5.16182C13.3213 4.93807 13.1853 4.7348 13.014 4.56363L9.75396 1.29963C9.40783 0.953936 8.93865 0.759766 8.44946 0.759766C7.96027 0.759766 7.49109 0.953936 7.14496 1.29963L6.37096 2.07363C5.48079 2.96401 4.92077 4.13127 4.78333 5.38279C4.64589 6.6343 4.93924 7.89528 5.61496 8.95763L5.62296 8.96963C9.19637 14.2595 13.7509 18.815 19.04 22.3896V22.3896Z" stroke="#EC1115" stroke-width="1.5" stroke-linecap="round" stroke-linejoin="round" shape-rendering="crispEdges"/>
</g>
<defs>
<filter id="filter0_d_356_1216" x="0.000244141" y="0.00976562" width="31.9996" height="32.002" filterUnits="userSpaceOnUse" color-interpolation-filters="sRGB">
<feFlood flood-opacity="0" result="BackgroundImageFix"/>
<feColorMatrix in="SourceAlpha" type="matrix" values="0 0 0 0 0 0 0 0 0 0 0 0 0 0 0 0 0 0 127 0" result="hardAlpha"/>
<feOffset dy="4"/>
<feGaussianBlur stdDeviation="2"/>
<feComposite in2="hardAlpha" operator="out"/>
<feColorMatrix type="matrix" values="0 0 0 0 0 0 0 0 0 0 0 0 0 0 0 0 0 0 0.25 0"/>
<feBlend mode="normal" in2="BackgroundImageFix" result="effect1_dropShadow_356_1216"/>
<feBlend mode="normal" in="SourceGraphic" in2="effect1_dropShadow_356_1216" result="shape"/>
</filter>
</defs>
</svg>
