<svg width="32" height="32" viewBox="0 0 32 32" fill="none" xmlns="http://www.w3.org/2000/svg">
<path d="M16 14.5C17.6569 14.5 19 13.1569 19 11.5C19 9.84315 17.6569 8.5 16 8.5C14.3431 8.5 13 9.84315 13 11.5C13 13.1569 14.3431 14.5 16 14.5Z" stroke="#EC1115" stroke-width="1.5" stroke-linecap="round" stroke-linejoin="round"/>
<path d="M16 4.75C17.7902 4.75 19.5071 5.46116 20.773 6.72703C22.0388 7.9929 22.75 9.70979 22.75 11.5C22.75 14.751 17.618 22.027 16.304 23.837C16.269 23.8847 16.2232 23.9236 16.1704 23.9503C16.1176 23.9771 16.0592 23.991 16 23.991C15.9408 23.991 15.8824 23.9771 15.8296 23.9503C15.7768 23.9236 15.731 23.8847 15.696 23.837C14.382 22.027 9.25 14.751 9.25 11.5C9.25 9.70979 9.96116 7.9929 11.227 6.72703C12.4929 5.46116 14.2098 4.75 16 4.75V4.75Z" stroke="#EC1115" stroke-width="1.5" stroke-linecap="round" stroke-linejoin="round"/>
<path d="M21.979 21.7842C24.711 22.3252 26.5 23.2282 26.5 24.2502C26.5 25.9072 21.8 27.2502 16 27.2502C10.2 27.2502 5.5 25.9072 5.5 24.2502C5.5 23.2302 7.281 22.3292 10 21.7872" stroke="#EC1115" stroke-width="1.5" stroke-linecap="round" stroke-linejoin="round"/>
</svg>
