<svg width="32" height="32" viewBox="0 0 32 32" fill="none" xmlns="http://www.w3.org/2000/svg">
<path d="M16 0C7.15528 0 0 7.15528 0 16C0 24.8447 7.15528 32 16 32C24.8447 32 32 24.8447 32 16C32 7.15528 24.8447 0 16 0ZM24.2981 16.3975C22.5093 23.6025 10.6335 26.6335 5.11801 19.1801C7.20497 21.1677 10.882 21.3665 13.1677 18.9814C11.8261 19.1801 10.8323 17.8385 12.472 17.1429C10.9814 17.2919 10.1366 16.4969 9.78882 15.8509C10.1366 15.5031 10.5342 15.3043 11.2795 15.2547C9.63975 14.8571 9.04348 14.0621 8.84472 13.0683C9.29192 12.9689 9.8882 12.8696 10.1863 12.9193C8.74534 12.1739 8.24845 11.0311 8.34783 10.1863C10.9317 11.1304 12.5714 11.9255 13.913 12.6211C14.4099 12.8696 14.9565 13.3665 15.5528 13.9627C16.3478 11.8758 17.2919 9.73913 18.9814 8.69565C18.9317 8.9441 18.8323 9.14286 18.6335 9.34161C19.0807 8.89441 19.7267 8.59627 20.323 8.54658C20.2733 8.99379 19.5776 9.29193 19.1801 9.44099C19.4783 9.34161 21.118 8.59627 21.3168 9.04348C21.5155 9.54037 20.1739 9.73913 19.9752 9.83851C19.8261 9.8882 19.6273 9.93789 19.4783 10.0373C21.5652 9.83851 23.5031 11.5279 24.0994 13.6646C24.1491 13.8137 24.1988 13.9627 24.1988 14.1615C24.9441 14.4596 26.3354 14.1615 26.7826 13.8634C26.4845 14.6087 25.6397 15.1553 24.3975 15.2547C24.9938 15.5031 26.087 15.6522 26.882 15.5031C26.3851 15.9503 25.5901 16.3975 24.2981 16.3975Z" fill="#85868D"/>
</svg>
